<svg xmlns="http://www.w3.org/2000/svg" viewBox="0 0 17.889336 17.889338">
  <path fill="#009688" d="M3.9227535 6.9359008h2.152249v7.0306832h-2.152249z"/>
  <path fill="#009688" d="M7.9402862 3.922753h2.008763v10.043832h-2.008763z"/>
  <path fill="#009688" d="M11.957816 9.6620829h2.008765v4.3045001h-2.008765z"/>
  <path fill="#009688" d="M1.9877047 11.926225H0v3.975408c0 1.093236.8944647 1.987704 1.9877047 1.987704h3.975407v-1.987703h-3.975407zm0-9.938521h3.975407V0h-3.975407C.8944647 0 0 .894467 0 1.987704v3.975407h1.9877047zM15.901634 0h-3.975411v1.987704h3.975411v3.975407h1.987701V1.987704C17.889335.894467 16.994868 0 15.901634 0zm0 15.901634h-3.975411v1.987703h3.975411c1.093234 0 1.987701-.894468 1.987701-1.987704v-3.975408h-1.987702z"/>
</svg>
