<svg xmlns="http://www.w3.org/2000/svg" id="svg8" version="1.1" viewBox="0 0 1465.4868 358.05266">
  <defs id="defs2">
    <path id="rect1049-2-0-4" d="M102.32697-213.08583h598.85175v102.53293H102.32697z"/>
    <path id="rect1049-2-7-4" d="M102.32697-213.08583h598.85175v102.53293H102.32697z"/>
  </defs>
  <g id="layer9" display="inline" transform="translate(-2.9186043 -1.6727381)">
    <path id="rect3725" fill="none" fill-opacity="1" stroke="none" stroke-dasharray="none" stroke-linecap="round" stroke-linejoin="round" stroke-miterlimit="4" stroke-opacity="1" stroke-width="0" d="M-60.069225-66.012589h1633.8209v494.41946h-1633.8209z"/>
  </g>
  <g id="layer6" display="inline" transform="translate(86.263496 -231.07059)">
    <g id="logo" fill="#009688" fill-opacity="1" stroke-dasharray="none" stroke-miterlimit="4" stroke-width=".999921" display="inline" transform="matrix(2.38036 0 0 2.38036 -76.417476 231.07057)">
      <path id="path937" fill="#009688" fill-opacity="1" stroke-dasharray="none" stroke-miterlimit="4" stroke-width=".999921" d="M81.39 40.22l-.39-1.8c-2.47-9.34-2.23-14.57.31-16 2.54-1.43 5.9-.59 10.13 2.05a35.37 35.37 0 019.56 9.02 30 30 0 014.48 8.24 12 12 0 01.61 7.12c-.79 2.89-3.71 3.92-9.55 2.66l-1-2.57c3.07.43 5-.79 6.09-3.43a10 10 0 00-.1-6.71 24.92 24.92 0 00-4.19-7.8 18.18 18.18 0 00-5.07-4.85c-1.81-1.06-3.26-1.2-4.35-.32-1.81 1.47-1.18 7.43 2.22 18.35l1 3.33a23.75 23.75 0 01.69 2.73l.57 1.82c4.13 13 5.49 22.86 3.6 29.35-2.7 9.33-9.23 18.08-22.23 26.61a103.62 103.62 0 01-11.64 6.6L75.39 123l52.17-78.75L57.51 0 14.17 33.4c21.76-6.45 42.48-3.53 60.9 4l1.35 3.6c-11.73-3.11-22.69-3.06-31.13 1.77-9.82 5.66-15.83 15.17-16 28.37-.14 14.79 7 26.06 19.67 31.76 8 3.57 16.24 2.58 24.09-2a29.41 29.41 0 0013.14-15.15c3.11-8 1.69-21.53-3.29-39.87l-.9-3.21z" class="cls-1"/>
      <path id="path939" fill="#009688" fill-opacity="1" stroke-dasharray="none" stroke-miterlimit="4" stroke-width=".999921" d="M17.59 149.73H7.16c-5.51 0-7.16-1.63-7.16-5.11h5.17c0 .89 1.09 1.71 2.55 1.71h8.66c2.27 0 3.14-.62 3.14-2.07 0-1.3-.34-2-3.3-2H8.56c-5.88 0-8-.86-8-5.43 0-3.63 2.24-5.08 8-5.08h8.78c5.23 0 7.38 1.61 7.38 5.08h-5.2c0-1.11-.47-1.68-2.65-1.68H8.19c-1.47 0-2.49.49-2.49 1.86 0 1.64 1.06 1.85 2.49 1.85h9.43c4.77 0 7.07.41 7.07 5.42 0 3.79-1.99 5.45-7.1 5.45z" class="cls-1"/>
      <path id="rect941" fill="#009688" fill-opacity="1" stroke-dasharray="none" stroke-miterlimit="4" stroke-width=".999921" d="M28.610001 139.50999h8.8500004v3.5799999H28.610001z" class="cls-1"/>
      <path id="path943" fill="#009688" fill-opacity="1" stroke-dasharray="none" stroke-miterlimit="4" stroke-width=".999921" d="M55.92 144.42H46.3v5.31h-5.17v-18h14.73c5.45 0 7.6 1.76 7.6 6.3s-2.21 6.39-7.54 6.39m-1-9.11H46.3v5.53h8.63c2.61 0 3.36-.86 3.36-2.81 0-1.76-.65-2.72-3.36-2.72z" class="cls-1"/>
      <path id="path945" fill="#009688" fill-opacity="1" stroke-dasharray="none" stroke-miterlimit="4" stroke-width=".999921" d="M83.51 149.73H74c-5.79 0-8-1.79-8-6.14v-5.66c0-4.93 2.09-6.41 8-6.41h9.5c5.35 0 7.81 1.35 7.81 6.41v5.66c0 4.48-1.77 6.14-7.81 6.14m2.65-11.41c0-2.62-1.06-3.22-4.15-3.22h-6.65c-3.24 0-4.14.68-4.14 3.24v4.8c0 2.37.9 3 4.05 3h6.85c3.3 0 4-.59 4-3z" class="cls-1"/>
      <path id="path947" fill="#009688" fill-opacity="1" stroke-dasharray="none" stroke-miterlimit="4" stroke-width=".999921" d="M112 149.73h-9.5c-5.79 0-8-1.79-8-6.14v-5.66c0-4.93 2.09-6.41 8-6.41h9.5c5.35 0 7.81 1.35 7.81 6.41v5.66c0 4.48-1.77 6.14-7.81 6.14m2.65-11.41c0-2.62-1.06-3.22-4.15-3.22h-6.66c-3.24 0-4.14.68-4.14 3.24v4.8c0 2.37.9 3 4 3h6.85c3.3 0 4.05-.59 4.05-3z" class="cls-1"/>
      <path id="polygon949" fill="#009688" fill-opacity="1" stroke-dasharray="none" stroke-miterlimit="4" stroke-width=".999921" d="M141.73 149.73H123.2v-18h5.18v14.42h13.35z" class="cls-1"/>
    </g>
  </g>
  <g id="layer8" display="inline" transform="translate(28.931896 77.073839)">
    <g id="g3706" fill="#009688" fill-opacity="1" stroke-dasharray="none" stroke-miterlimit="4" stroke-width=".999973" transform="matrix(4.45795 0 0 4.45795 469.38422 -221.63378)">
      <path id="path3692" d="M11.39207 90.577832q-3.2511998 0-6.0451997-.9144-2.7432-.9652-4.77519994-2.6924-2.03199996-1.7272-3.09879996-4.0132-.4064-.8128-.0508-1.4732.4064-.7112 1.3208-.9652.71119998-.2032 1.37159997.1524.71119999.3556 1.06680003 1.0668.7619999 1.4732 2.2351999 2.6416 1.4732 1.1684 3.5052 1.8288 2.0319999.6096 4.4703997.6096 2.6924 0 4.7752-.8636 2.0828-.9144 3.2512-2.5908 1.2192-1.7272 1.2192-4.1656 0-3.0988-2.286-5.334-2.286-2.2352-7.1628-2.8448-5.9435997-.7112-9.2963997-3.6576-3.3527999-2.9972-3.3527999-7.3152 0-3.0988 1.62559997-5.3848 1.67639993-2.286 4.57199993-3.5052 2.8956-1.27 6.6547997-1.27 2.794 0 5.08.9144 2.286.8636 3.9624 2.3368 1.7272 1.4224 2.794 3.1496.508.8128.3048 1.5748-.1524.762-.8636 1.1684-.762.3556-1.5748.1016-.762-.254-1.1684-.9652-.762-1.1684-1.9304-2.1844-1.1176-1.0668-2.7432-1.6764-1.6256-.6096-3.9116-.6604-4.0131997 0-6.4515997 1.7272-2.4384 1.6764-2.4384 4.9276 0 1.7272.9144 3.2004.9144 1.4224 2.9972 2.4892 2.1335999 1.016 5.6895997 1.524 6.35.9144 9.398 3.9116 3.0988 2.9464 3.0988 7.7216 0 2.7432-1.016 4.8768-.9652 2.1336-2.794 3.6068-1.778 1.4224-4.2164 2.1844-2.3876.762-5.1308.762z"/>
      <path id="path3694" d="M37.102425 102.16023q-.4064 0-.9144-.2032-1.7272-.762-.9652-2.438398l16.4084-36.1696q.762-1.6256 2.4384-.9144 1.7272.7112.9652 2.3876l-16.4592 36.169598q-.508 1.1684-1.4732 1.1684zm5.6388-12.953998q-.762.3556-1.4224.1524-.6604-.254-1.0668-1.016l-11.3284-23.4696q-.3556-.762-.1016-1.4224.254-.6604 1.016-1.016t1.4224-.1016q.6604.2032 1.016.9652l11.1252 23.4696q.4064.762.254 1.4224-.1524.6604-.9144 1.016z"/>
      <path id="path3696" d="M84.032895 90.069832q-.8636 0-1.4224-.5588-.5588-.5588-.5588-1.3716v-13.208q0-3.1496-1.2192-5.1816-1.1684-2.032-3.2512-3.048-2.032-1.016-4.6228-1.016-2.4892 0-4.5212.9652-1.9812.9652-3.1496 2.6416-1.1684 1.6764-1.1684 3.81h-2.794q.1016-3.2004 1.7272-5.6896 1.6256-2.54 4.318-3.9624 2.6924-1.4732 5.9944-1.4732 3.6068 0 6.4516 1.524 2.8448 1.4732 4.4704 4.3688 1.6764 2.8956 1.6764 7.0612v13.208q0 .8128-.5588 1.3716t-1.3716.5588zm-21.844 0q-.9144 0-1.4732-.508-.508-.5588-.508-1.4224v-23.876q0-.9144.508-1.4224.5588-.5588 1.4732-.5588.8636 0 1.3716.5588.5588.508.5588 1.4224v23.876q0 .8636-.5588 1.4224-.508.508-1.3716.508z"/>
      <path id="path3698" d="M106.8794 90.323832q-3.9116 0-7.010403-1.8288-3.0988-1.8796-4.9276-5.08-1.778-3.2004-1.778-7.2136 0-4.064 1.8288-7.2644 1.8796-3.2004 5.080003-5.0292 3.2004-1.8796 7.2136-1.8796 4.0132 0 7.1628 1.8796 3.2004 1.8288 5.0292 5.0292 1.8796 3.2004 1.9304 7.2644l-1.5748 1.2192q0 3.6576-1.7272 6.604-1.6764 2.8956-4.6228 4.6228-2.8956 1.6764-6.604 1.6764zm.4064-3.556q2.9464 0 5.2324-1.3716 2.3368-1.3716 3.6576-3.7592 1.3716-2.4384 1.3716-5.4356 0-3.048-1.3716-5.4356-1.3208-2.3876-3.6576-3.7592-2.286-1.4224-5.2324-1.4224-2.8956 0-5.2324 1.4224-2.336803 1.3716-3.708403 3.7592t-1.3716 5.4356q0 2.9972 1.3716 5.4356 1.3716 2.3876 3.708403 3.7592 2.3368 1.3716 5.2324 1.3716zm12.1412 3.302q-.8636 0-1.4224-.508-.5588-.5588-.5588-1.4224v-8.6868l.9652-4.0132 2.9972.762v11.938q0 .8636-.5588 1.4224-.5588.508-1.4224.508z"/>
      <path id="path3700" d="M131.0467 101.95703q-.9144 0-1.4732-.5588-.508-.508-.508-1.422398v-23.9776q.0508-3.9624 1.8796-7.112 1.8796-3.2004 5.0292-5.0292 3.2004-1.8288 7.1628-1.8288 4.064 0 7.2644 1.8796 3.2004 1.8288 5.0292 5.0292 1.8796 3.2004 1.8796 7.2644 0 4.0132-1.8288 7.2136-1.778 3.2004-4.8768 5.08-3.0988 1.8288-7.0104 1.8288-3.4036 0-6.1976-1.4224-2.7432-1.4732-4.4196-3.8608v14.9352q0 .914398-.5588 1.422398-.508.5588-1.3716.5588zm12.0904-15.189198q2.9464 0 5.2832-1.3716 2.3368-1.3716 3.6576-3.7592 1.3716-2.4384 1.3716-5.4356 0-3.048-1.3716-5.4356-1.3208-2.3876-3.6576-3.7592-2.3368-1.4224-5.2832-1.4224-2.8956 0-5.2324 1.4224-2.3368 1.3716-3.6576 3.7592-1.3208 2.3876-1.3208 5.4356 0 2.9972 1.3208 5.4356 1.3208 2.3876 3.6576 3.7592t5.2324 1.3716z"/>
      <path id="path3702" d="M174.68549 90.323832q-2.9972 0-5.9436-1.016t-4.7752-3.048q-.5588-.6096-.4572-1.3716.1016-.762.762-1.3208.7112-.508 1.4732-.4064.762.1016 1.27.6604 1.2192 1.4224 3.2004 2.1844 2.032.762 4.4704.762 3.7592 0 5.4356-1.27 1.6764-1.3208 1.7272-3.1496 0-1.8288-1.7272-2.9972-1.7272-1.2192-5.6896-1.8796-5.1308-.8128-7.5184-2.8448t-2.3876-4.826q0-2.5908 1.3716-4.318 1.3716-1.7272 3.6576-2.5908 2.286-.8636 5.0292-.8636 3.4036 0 5.842 1.1684 2.4892 1.1684 4.0132 3.1496.508.6604.4064 1.3716-.1016.7112-.8128 1.1684-.6096.3556-1.4224.254-.762-.1524-1.3208-.762-1.27-1.4732-2.9464-2.1336-1.6764-.7112-3.8608-.7112-2.794 0-4.4704 1.1684-1.6764 1.1176-1.6764 2.8448 0 1.1684.6096 2.032.6604.8636 2.1844 1.524 1.5748.6604 4.3688 1.1176 3.81.6096 5.9944 1.8288 2.2352 1.1684 3.1496 2.794.9652 1.5748.9652 3.4544 0 2.3876-1.4224 4.2164-1.3716 1.778-3.8608 2.794-2.4384 1.016-5.6388 1.016z"/>
      <path id="path3704" d="M204.96546 90.323832q-4.1148 0-7.3152-1.778-3.1496-1.8288-4.9784-5.0292-1.778-3.2004-1.778-7.3152 0-4.1656 1.6764-7.3152 1.7272-3.2004 4.7244-5.0292 2.9972-1.8288 6.9088-1.8288 3.8608 0 6.7056 1.778 2.8956 1.7272 4.4704 4.826 1.5748 3.0988 1.5748 7.0612 0 .8128-.508 1.3208-.508.4572-1.3208.4572h-21.59v-3.2512h21.9964l-2.1844 1.5748q.0508-2.9464-1.0668-5.2832-1.1176-2.3368-3.2004-3.6576-2.032-1.3208-4.8768-1.3208-2.8956 0-5.08 1.3716t-3.4036 3.81q-1.1684 2.3876-1.1684 5.4864 0 3.0988 1.3208 5.4864 1.3716 2.3876 3.7084 3.7592t5.3848 1.3716q1.8288 0 3.6576-.6096 1.8796-.6604 2.9972-1.6256.5588-.4572 1.27-.4572.7112-.0508 1.2192.3556.6604.6096.6604 1.3208.0508.7112-.5588 1.2192-1.6764 1.4224-4.2672 2.3876-2.5908.9144-4.9784.9144z"/>
    </g>
  </g>
</svg>
