<?xml version="1.0" encoding="UTF-8" standalone="no"?>
<svg
   xmlns:dc="http://purl.org/dc/elements/1.1/"
   xmlns:cc="http://creativecommons.org/ns#"
   xmlns:rdf="http://www.w3.org/1999/02/22-rdf-syntax-ns#"
   xmlns:svg="http://www.w3.org/2000/svg"
   xmlns="http://www.w3.org/2000/svg"
   xmlns:sodipodi="http://sodipodi.sourceforge.net/DTD/sodipodi-0.dtd"
   xmlns:inkscape="http://www.inkscape.org/namespaces/inkscape"
   id="svg8"
   version="1.1"
   viewBox="0 0 375.99999 375.99998"
   sodipodi:docname="spl_logo_r.svg"
   width="376"
   height="376"
   inkscape:version="1.0 (4035a4fb49, 2020-05-01)">
  <metadata
     id="metadata28">
    <rdf:RDF>
      <cc:Work
         rdf:about="">
        <dc:format>image/svg+xml</dc:format>
        <dc:type
           rdf:resource="http://purl.org/dc/dcmitype/StillImage" />
        <dc:title />
      </cc:Work>
    </rdf:RDF>
  </metadata>
  <sodipodi:namedview
     inkscape:document-rotation="0"
     pagecolor="#ffffff"
     bordercolor="#666666"
     borderopacity="1"
     objecttolerance="10"
     gridtolerance="10"
     guidetolerance="10"
     inkscape:pageopacity="0"
     inkscape:pageshadow="2"
     inkscape:window-width="1858"
     inkscape:window-height="1057"
     id="namedview26"
     showgrid="false"
     fit-margin-top="0.2"
     fit-margin-left="11.6"
     fit-margin-right="11.6"
     fit-margin-bottom="0.2"
     inkscape:zoom="0.8337766"
     inkscape:cx="175.43947"
     inkscape:cy="361.85307"
     inkscape:window-x="-8"
     inkscape:window-y="-8"
     inkscape:window-maximized="1"
     inkscape:current-layer="svg8" />
  <defs
     id="defs2">
    <path
       id="rect1049-2-0-4"
       d="M 102.32697,-213.08583 H 701.17872 V -110.5529 H 102.32697 Z" />
    <path
       id="rect1049-2-7-4"
       d="M 102.32697,-213.08583 H 701.17872 V -110.5529 H 102.32697 Z" />
  </defs>
  <path
     id="path937"
     fill="#fafafa"
     fill-opacity="1"
     stroke-dasharray="none"
     stroke-miterlimit="4"
     stroke-width="2.38017"
     d="m 213.05328,137.34595 -0.92834,-4.28465 c -5.87949,-22.23257 -5.3082,-34.68185 0.73791,-38.08577 6.04611,-3.40391 14.04412,-1.40441 24.11305,4.87974 a 84.193333,84.193333 0 0 1 22.75624,21.47085 71.4108,71.4108 0 0 1 10.66401,19.61417 28.56432,28.56432 0 0 1 1.45202,16.94816 c -1.88048,6.87924 -8.83113,9.33101 -22.73244,6.33175 l -2.38036,-6.11752 c 7.30771,1.02355 11.9018,-1.88049 14.4964,-8.16464 a 23.8036,23.8036 0 0 0 -0.23804,-15.9722 59.318571,59.318571 0 0 0 -9.97371,-18.56682 43.274945,43.274945 0 0 0 -12.06842,-11.54475 c -4.30846,-2.52318 -7.75998,-2.85643 -10.35457,-0.76171 -4.30845,3.49913 -2.80882,17.68607 5.2844,43.6796 l 2.38036,7.9266 a 56.53355,56.53355 0 0 1 1.64245,6.49839 l 1.3568,4.33225 c 9.83089,30.94468 13.06818,54.41503 8.5693,69.86357 -6.42697,22.20876 -21.97072,43.03691 -52.9154,63.34138 a 246.6529,246.6529 0 0 1 -27.70738,15.71037 L 198.77112,334.39214 322.95451,146.93879 156.21029,41.60786 53.04549,121.11188 c 51.79663,-15.35332 101.11768,-8.40267 144.96392,9.52145 l 3.21348,8.5693 c -27.92161,-7.40292 -54.01035,-7.2839 -74.1006,4.21323 -23.37513,13.47283 -37.6811,36.11006 -38.08576,67.53081 -0.33325,35.20552 16.66252,62.03218 46.82169,75.60023 19.04286,8.49789 38.65704,6.14133 57.34286,-4.76072 a 70.006388,70.006388 0 0 0 31.27793,-36.06245 c 7.40292,-19.04288 4.02281,-51.24915 -7.83139,-94.90495 l -2.14231,-7.64096 z"
     class="cls-1" />
</svg>
